<svg width="24" height="24" viewBox="0 0 24 24" fill="none" xmlns="http://www.w3.org/2000/svg">
<path d="M5.67969 3L21.6797 19" stroke="#14142B" stroke-width="2" stroke-linecap="round"/>
<path d="M22.2679 13.2302C22.4458 12.5885 22.3647 11.8927 22.0246 11.3003C20.3114 8.31648 17.8496 6.09905 15 5.11633M19.6278 16.9999C17.4379 19.2279 14.6784 20.5564 11.6798 20.5564C7.44377 20.5564 3.68497 17.9054 1.33497 13.8124C0.888345 13.0345 0.888342 12.0783 1.33497 11.3004C2.93979 8.50518 5.20165 6.38253 7.82381 5.31743" stroke="#14142B" stroke-width="2" stroke-linecap="round" stroke-linejoin="round"/>
<path d="M14.5892 11.8251C14.748 12.457 14.6968 13.1233 14.4434 13.7235C14.1899 14.3236 13.748 14.825 13.1844 15.1517C12.6208 15.4785 11.9662 15.6129 11.3194 15.5347C10.6726 15.4564 10.0689 15.1698 9.59949 14.7181C9.13007 14.2663 8.82045 13.6741 8.71743 13.0308C8.61441 12.3875 8.7236 11.7282 9.02848 11.1524C9.33337 10.5767 9.81738 10.1159 10.4074 9.83956C10.9973 9.56327 11.6612 9.48653 12.2987 9.62095" stroke="#14142B" stroke-width="2"/>
</svg>
