<?xml version="1.0" encoding="utf-8"?>
<svg viewBox="20 -240 865.133 980" xmlns="http://www.w3.org/2000/svg">
  <g transform="matrix(1, 0, 0, 1, -47.383938, -250.000031)">
    <path d="M553.9,934.6V63.9c0-29.9-23.9-53.9-53.9-53.9c-29.9,0-53.9,23.9-53.9,53.9v872.2c0,29.9,23.9,53.9,53.9,53.9C529.9,988.5,553.9,964.6,553.9,934.6L553.9,934.6z" style="fill: rgb(238, 19, 19);"/>
    <path d="M149.4,762.5l755.9-432.2c26-14.9,34.9-47.5,20-73.5c-14.9-26-47.5-34.9-73.5-20L94.6,669.7c-26,14.9-34.9,47.5-20,73.5C90.8,768.5,123.5,777.4,149.4,762.5L149.4,762.5z" style="fill: rgb(238, 19, 19);"/>
    <path d="M96.3,330.3l755.1,433.6c26,14.9,58.7,6.1,73.6-19.9c14.9-26,6.1-58.7-19.9-73.6L148.6,236.1c-26-14.9-58.7-6.1-73.6,19.9C61.5,282.7,70.3,315.4,96.3,330.3L96.3,330.3z" style="fill: rgb(238, 19, 19);"/>
  </g>
</svg>